<svg width="30" height="30" viewBox="0 0 30 30" fill="none" xmlns="http://www.w3.org/2000/svg">
<path d="M0 6C0 2.68629 2.68629 0 6 0H30V30H6C2.68629 30 0 27.3137 0 24V6Z" fill="#D0D0D0"/>
<path d="M24.1864 10.1633C24.1864 9.23655 23.4264 8.47827 22.4975 8.47827H8.98616C8.05725 8.47827 7.29724 9.23655 7.29724 10.1633V20.2737C7.29724 21.2004 8.05725 21.9587 8.98616 21.9587H22.4975C23.4264 21.9587 24.1864 21.2004 24.1864 20.2737V10.1633ZM22.4975 10.1633L15.7418 14.376L8.98616 10.1633H22.4975ZM22.4975 20.2737H8.98616V11.8484L15.7418 16.061L22.4975 11.8484V20.2737Z" fill="#343434"/>
</svg>
