<svg width="37" height="46" viewBox="0 0 37 46" fill="none" xmlns="http://www.w3.org/2000/svg">
<path d="M0 6C0 2.68629 2.68629 0 6 0H37V46H6C2.68629 46 0 43.3137 0 40V6Z" fill="#D0D0D0"/>
<path d="M29.83 15.5838C29.83 14.1627 28.8926 13 27.747 13H11.083C9.93735 13 9 14.1627 9 15.5838V31.0863C9 32.5073 9.93735 33.67 11.083 33.67H27.747C28.8926 33.67 29.83 32.5073 29.83 31.0863V15.5838ZM27.747 15.5838L19.415 22.0431L11.083 15.5838H27.747ZM27.747 31.0863H11.083V18.1675L19.415 24.6269L27.747 18.1675V31.0863Z" fill="#343434"/>
</svg>
