<svg width="90" height="90" viewBox="0 0 90 90" fill="none" xmlns="http://www.w3.org/2000/svg">
<rect width="90" height="90" rx="6" fill="#EAEAEA"/>
<path d="M11.25 16.875V22.5H73.125V67.5H33.75V73.125H84.375V67.5H78.75V16.875H11.25ZM22.5056 25.3125C19.5246 25.3229 16.6686 26.5113 14.5601 28.6187C12.4517 30.726 11.2619 33.5815 11.25 36.5625C11.25 42.7472 16.3237 47.8125 22.5056 47.8125C25.4851 47.8006 28.3392 46.6114 30.4455 44.504C32.5518 42.3966 33.7396 39.542 33.75 36.5625C33.75 30.3834 28.6819 25.3125 22.5056 25.3125ZM39.375 28.125V33.75H53.4375V28.125H39.375ZM59.0625 28.125V33.75H67.5V28.125H59.0625ZM22.5056 30.9375C25.6387 30.9375 28.125 33.4209 28.125 36.5625C28.125 39.7125 25.6416 42.1875 22.5056 42.1875C19.3556 42.1875 16.875 39.7125 16.875 36.5625C16.875 33.4209 19.3584 30.9375 22.5056 30.9375ZM39.375 39.375V45H67.5V39.375H39.375ZM11.25 50.625V73.125H16.875V56.25H25.3125V73.125H30.9375V58.1006L36.7425 61.1719C38.3878 62.0438 40.365 62.0409 42.0075 61.1719V61.1775L51.9356 55.9266L49.3116 50.9484L39.3806 56.1994L30.6731 51.6037C29.4579 50.9617 28.1044 50.6258 26.73 50.625H11.25Z" fill="black"/>
</svg>
