<svg width="266" height="266" viewBox="0 0 266 266" fill="none" xmlns="http://www.w3.org/2000/svg">
<g filter="url(#filter0_d_245_23)">
<rect x="33" y="33" width="200" height="200" rx="100" fill="#000454"/>
<rect x="35" y="35" width="196" height="196" rx="98" stroke="white" stroke-width="4"/>
<path d="M87.8594 117.984C90.0469 118.047 91.8594 118.094 93.2969 118.125C94.7656 118.125 95.9531 118.125 96.8594 118.125H99.3438H113.312C113.375 118.75 113.422 119.359 113.453 119.953C113.516 120.516 113.547 121.016 113.547 121.453C113.547 121.984 113.531 122.469 113.5 122.906C113.469 123.344 113.422 123.812 113.359 124.312C113.297 124.75 113.234 125.219 113.172 125.719C113.109 126.219 113 126.734 112.844 127.266C112.406 125.578 111.812 124.297 111.062 123.422C110.344 122.547 109.609 121.906 108.859 121.5C107.984 121.031 107.062 120.781 106.094 120.75C104.812 120.812 103.812 120.922 103.094 121.078C102.375 121.234 101.812 121.453 101.406 121.734C101 122.016 100.688 122.344 100.469 122.719C100.281 123.062 100.078 123.453 99.8594 123.891C99.6719 124.266 99.5 124.844 99.3438 125.625C99.1875 126.281 99.0312 127.172 98.875 128.297C98.75 129.422 98.6094 130.875 98.4531 132.656C99.2969 132.406 99.9688 132.172 100.469 131.953C101 131.734 101.422 131.547 101.734 131.391C102.078 131.203 102.328 131.031 102.484 130.875C102.609 130.688 102.797 130.344 103.047 129.844C103.234 129.406 103.484 128.812 103.797 128.062C104.141 127.312 104.547 126.281 105.016 124.969C105.078 126.406 105.109 127.609 105.109 128.578C105.109 129.516 105.125 130.281 105.156 130.875C105.156 131.562 105.172 132.109 105.203 132.516V134.297C105.203 134.953 105.203 135.844 105.203 136.969C105.234 138.062 105.281 139.453 105.344 141.141C104.969 139.984 104.625 139.078 104.312 138.422C104.031 137.734 103.781 137.219 103.562 136.875C103.312 136.469 103.094 136.188 102.906 136.031C102.688 135.969 102.391 135.906 102.016 135.844C101.672 135.812 101.234 135.797 100.703 135.797C100.203 135.797 99.5625 135.875 98.7812 136.031C98.6875 137.75 98.6719 139.141 98.7344 140.203C98.8281 141.234 98.9531 142.031 99.1094 142.594C99.2656 143.25 99.4531 143.719 99.6719 144C99.9531 144.281 100.516 144.516 101.359 144.703C102.203 144.859 103.156 144.922 104.219 144.891C105.312 144.828 106.422 144.641 107.547 144.328C108.672 144.016 109.672 143.5 110.547 142.781C111.203 142.188 111.906 141.438 112.656 140.531C113.281 139.75 113.969 138.766 114.719 137.578C115.5 136.391 116.266 134.953 117.016 133.266C116.891 134.672 116.797 135.844 116.734 136.781C116.703 137.688 116.656 138.422 116.594 138.984C116.531 139.641 116.484 140.141 116.453 140.484C116.453 140.859 116.406 141.391 116.312 142.078C116.25 142.672 116.141 143.484 115.984 144.516C115.859 145.516 115.688 146.797 115.469 148.359C114 148.391 112.609 148.422 111.297 148.453C109.984 148.453 108.828 148.469 107.828 148.5C106.641 148.531 105.547 148.562 104.547 148.594C103.516 148.594 102.375 148.641 101.125 148.734C100.031 148.797 98.7344 148.891 97.2344 149.016C95.7656 149.141 94.1406 149.312 92.3594 149.531C92.5156 147.406 92.625 145.406 92.6875 143.531C92.7812 141.625 92.8438 139.953 92.875 138.516C92.9062 136.828 92.9062 135.266 92.875 133.828C93.0312 130.234 92.9688 127.328 92.6875 125.109C92.4062 122.891 92.0781 121.469 91.7031 120.844C91.5156 120.625 91.25 120.359 90.9062 120.047C90.625 119.797 90.2344 119.5 89.7344 119.156C89.2344 118.812 88.6094 118.422 87.8594 117.984ZM116.781 115.781C117.781 115.938 118.688 116.078 119.5 116.203C120.312 116.297 121.016 116.375 121.609 116.438C122.297 116.531 122.906 116.609 123.438 116.672C124.094 116.766 125.078 116.656 126.391 116.344C127.703 116 129.141 115.688 130.703 115.406C132.297 115.094 133.922 114.922 135.578 114.891C137.234 114.828 138.75 115.125 140.125 115.781C141.5 116.438 142.625 117.094 143.5 117.75C144.375 118.406 145.062 119.109 145.562 119.859C146.094 120.578 146.469 121.344 146.688 122.156C146.906 122.969 147.031 123.859 147.062 124.828C147.031 126.266 146.688 127.656 146.031 129C145.75 129.562 145.375 130.156 144.906 130.781C144.469 131.375 143.922 131.953 143.266 132.516C142.609 133.078 141.828 133.609 140.922 134.109C140.047 134.609 139.016 135.047 137.828 135.422C138.984 135.766 139.938 136.172 140.688 136.641C141.469 137.109 142.094 137.547 142.562 137.953C143.125 138.453 143.547 138.938 143.828 139.406C144.172 140.062 144.406 140.625 144.531 141.094C144.656 141.562 144.734 142.016 144.766 142.453C144.828 142.859 144.906 143.281 145 143.719C145.094 144.156 145.297 144.656 145.609 145.219C145.859 145.656 146.156 146.109 146.5 146.578C146.812 146.984 147.172 147.422 147.578 147.891C148.016 148.359 148.547 148.812 149.172 149.25C148.297 149.281 147.484 149.297 146.734 149.297C146.016 149.297 145.391 149.297 144.859 149.297C144.234 149.297 143.641 149.281 143.078 149.25C142.516 149.219 141.812 149.203 140.969 149.203C140.25 149.203 139.328 149.203 138.203 149.203C137.109 149.203 135.781 149.219 134.219 149.25C134.906 148.719 135.469 148.188 135.906 147.656C136.344 147.125 136.688 146.641 136.938 146.203C137.219 145.703 137.422 145.219 137.547 144.75C137.703 143.906 137.719 143.031 137.594 142.125C137.5 141.344 137.25 140.484 136.844 139.547C136.438 138.578 135.781 137.609 134.875 136.641C133.969 136.797 133.203 136.922 132.578 137.016C131.984 137.078 131.469 137.141 131.031 137.203C130.531 137.266 130.125 137.312 129.812 137.344C129.531 137.375 129.219 137.406 128.875 137.438C128.594 137.469 128.281 137.516 127.938 137.578C127.625 137.609 127.328 137.656 127.047 137.719C126.984 139.062 126.984 140.234 127.047 141.234C127.109 142.203 127.188 143.016 127.281 143.672C127.406 144.453 127.547 145.125 127.703 145.688C127.859 146.25 128.078 146.797 128.359 147.328C128.578 147.766 128.859 148.234 129.203 148.734C129.547 149.203 129.938 149.594 130.375 149.906C129.562 149.906 128.781 149.906 128.031 149.906C127.312 149.906 126.656 149.891 126.062 149.859C125.375 149.859 124.719 149.844 124.094 149.812C123.469 149.781 122.766 149.766 121.984 149.766C121.328 149.766 120.547 149.766 119.641 149.766C118.766 149.766 117.812 149.781 116.781 149.812C117.594 148.969 118.234 148.25 118.703 147.656C119.172 147.062 119.531 146.562 119.781 146.156C120.062 145.719 120.234 145.344 120.297 145.031C120.359 144.531 120.406 143.641 120.438 142.359C120.5 141.047 120.547 139.547 120.578 137.859C120.609 136.172 120.625 134.406 120.625 132.562C120.625 130.719 120.609 129 120.578 127.406C120.547 125.781 120.516 124.391 120.484 123.234C120.453 122.078 120.422 121.344 120.391 121.031C120.297 120.469 120.094 119.906 119.781 119.344C119.531 118.844 119.172 118.281 118.703 117.656C118.234 117.031 117.594 116.406 116.781 115.781ZM134.5 132.281C134.812 132.094 135.078 131.906 135.297 131.719C135.516 131.531 135.703 131.234 135.859 130.828C136.016 130.391 136.141 129.781 136.234 129C136.359 128.219 136.5 127.156 136.656 125.812C136.781 124.469 136.688 123.359 136.375 122.484C136.094 121.609 135.703 120.922 135.203 120.422C134.734 119.891 134.203 119.531 133.609 119.344C133.047 119.125 132.547 119.016 132.109 119.016C131.234 119.016 130.375 119.281 129.531 119.812C128.688 120.344 128.047 121.062 127.609 121.969C127.453 122.375 127.312 123.047 127.188 123.984C127.094 124.797 127.031 125.922 127 127.359C126.969 128.797 127.016 130.688 127.141 133.031C128.328 133.219 129.375 133.297 130.281 133.266C131.188 133.203 131.953 133.094 132.578 132.938C133.328 132.781 133.969 132.562 134.5 132.281ZM146.547 116.438C147.734 116.719 148.797 116.938 149.734 117.094C150.703 117.219 151.516 117.312 152.172 117.375C152.953 117.469 153.641 117.5 154.234 117.469C154.984 117.438 155.922 117.328 157.047 117.141C158.172 116.953 159.359 116.766 160.609 116.578C161.859 116.391 163.094 116.234 164.312 116.109C165.531 115.984 166.594 115.969 167.5 116.062C168.406 116.156 169.359 116.375 170.359 116.719C171.359 117.031 172.297 117.469 173.172 118.031C174.047 118.562 174.797 119.219 175.422 120C176.078 120.781 176.484 121.688 176.641 122.719C176.797 123.719 176.703 124.797 176.359 125.953C176.016 127.078 175.469 128.188 174.719 129.281C173.969 130.344 173.031 131.328 171.906 132.234C170.781 133.141 169.531 133.875 168.156 134.438C167.062 134.844 165.875 135.156 164.594 135.375C163.5 135.562 162.219 135.688 160.75 135.75C159.312 135.781 157.781 135.625 156.156 135.281C155.938 136.188 155.812 137.031 155.781 137.812C155.781 138.562 155.812 139.234 155.875 139.828C155.969 140.516 156.094 141.141 156.25 141.703C156.438 142.266 156.672 142.922 156.953 143.672C157.203 144.297 157.484 145.062 157.797 145.969C158.141 146.844 158.547 147.828 159.016 148.922C158.453 148.922 157.906 148.938 157.375 148.969C156.844 148.969 156.359 148.984 155.922 149.016C155.422 149.047 154.953 149.078 154.516 149.109C154.016 149.141 153.453 149.203 152.828 149.297C152.297 149.359 151.625 149.453 150.812 149.578C150.031 149.703 149.141 149.859 148.141 150.047C148.797 149.109 149.312 148.25 149.688 147.469C150.094 146.656 150.391 145.953 150.578 145.359C150.797 144.672 150.938 144.047 151 143.484C151.031 143.016 151.031 142.188 151 141C151 139.812 150.984 138.438 150.953 136.875C150.922 135.312 150.875 133.672 150.812 131.953C150.75 130.234 150.672 128.625 150.578 127.125C150.484 125.594 150.375 124.281 150.25 123.188C150.156 122.094 150.062 121.375 149.969 121.031C149.844 120.625 149.625 120.188 149.312 119.719C149.062 119.312 148.703 118.844 148.234 118.312C147.797 117.75 147.234 117.125 146.547 116.438ZM156.25 125.672C156.219 125.984 156.203 126.312 156.203 126.656C156.203 127.312 156.25 128.156 156.344 129.188C156.562 129.719 156.828 130.156 157.141 130.5C157.484 130.844 157.844 131.109 158.219 131.297C158.625 131.484 159.031 131.609 159.438 131.672C159.844 131.734 160.25 131.766 160.656 131.766C161.594 131.734 162.578 131.516 163.609 131.109C164.984 130.516 165.953 129.672 166.516 128.578C167.078 127.484 167.375 126.359 167.406 125.203C167.438 124.047 167.234 122.984 166.797 122.016C166.391 121.047 165.891 120.391 165.297 120.047C164.797 119.828 164.156 119.734 163.375 119.766C162.688 119.797 161.828 119.969 160.797 120.281C159.766 120.594 158.5 121.156 157 121.969C156.844 122.531 156.719 123.031 156.625 123.469C156.531 123.906 156.453 124.297 156.391 124.641C156.328 125.016 156.281 125.359 156.25 125.672Z" fill="white"/>
</g>
<defs>
<filter id="filter0_d_245_23" x="0" y="0" width="266" height="266" filterUnits="userSpaceOnUse" color-interpolation-filters="sRGB">
<feFlood flood-opacity="0" result="BackgroundImageFix"/>
<feColorMatrix in="SourceAlpha" type="matrix" values="0 0 0 0 0 0 0 0 0 0 0 0 0 0 0 0 0 0 127 0" result="hardAlpha"/>
<feMorphology radius="4" operator="dilate" in="SourceAlpha" result="effect1_dropShadow_245_23"/>
<feOffset/>
<feGaussianBlur stdDeviation="14.5"/>
<feComposite in2="hardAlpha" operator="out"/>
<feColorMatrix type="matrix" values="0 0 0 0 1 0 0 0 0 1 0 0 0 0 1 0 0 0 0.62 0"/>
<feBlend mode="normal" in2="BackgroundImageFix" result="effect1_dropShadow_245_23"/>
<feBlend mode="normal" in="SourceGraphic" in2="effect1_dropShadow_245_23" result="shape"/>
</filter>
</defs>
</svg>
