<svg width="298" height="298" viewBox="0 0 298 298" fill="none" xmlns="http://www.w3.org/2000/svg">
<g filter="url(#filter0_d_245_23)">
<rect x="49" y="49" width="200" height="200" rx="100" fill="#000454"/>
<rect x="51" y="51" width="196" height="196" rx="98" stroke="white" stroke-width="4"/>
<path d="M103.859 133.984C106.047 134.047 107.859 134.094 109.297 134.125C110.766 134.125 111.953 134.125 112.859 134.125H115.344H129.312C129.375 134.75 129.422 135.359 129.453 135.953C129.516 136.516 129.547 137.016 129.547 137.453C129.547 137.984 129.531 138.469 129.5 138.906C129.469 139.344 129.422 139.812 129.359 140.312C129.297 140.75 129.234 141.219 129.172 141.719C129.109 142.219 129 142.734 128.844 143.266C128.406 141.578 127.812 140.297 127.062 139.422C126.344 138.547 125.609 137.906 124.859 137.5C123.984 137.031 123.062 136.781 122.094 136.75C120.812 136.812 119.812 136.922 119.094 137.078C118.375 137.234 117.812 137.453 117.406 137.734C117 138.016 116.688 138.344 116.469 138.719C116.281 139.062 116.078 139.453 115.859 139.891C115.672 140.266 115.5 140.844 115.344 141.625C115.188 142.281 115.031 143.172 114.875 144.297C114.75 145.422 114.609 146.875 114.453 148.656C115.297 148.406 115.969 148.172 116.469 147.953C117 147.734 117.422 147.547 117.734 147.391C118.078 147.203 118.328 147.031 118.484 146.875C118.609 146.688 118.797 146.344 119.047 145.844C119.234 145.406 119.484 144.812 119.797 144.062C120.141 143.312 120.547 142.281 121.016 140.969C121.078 142.406 121.109 143.609 121.109 144.578C121.109 145.516 121.125 146.281 121.156 146.875C121.156 147.562 121.172 148.109 121.203 148.516V150.297C121.203 150.953 121.203 151.844 121.203 152.969C121.234 154.062 121.281 155.453 121.344 157.141C120.969 155.984 120.625 155.078 120.312 154.422C120.031 153.734 119.781 153.219 119.562 152.875C119.312 152.469 119.094 152.188 118.906 152.031C118.688 151.969 118.391 151.906 118.016 151.844C117.672 151.812 117.234 151.797 116.703 151.797C116.203 151.797 115.562 151.875 114.781 152.031C114.688 153.75 114.672 155.141 114.734 156.203C114.828 157.234 114.953 158.031 115.109 158.594C115.266 159.25 115.453 159.719 115.672 160C115.953 160.281 116.516 160.516 117.359 160.703C118.203 160.859 119.156 160.922 120.219 160.891C121.312 160.828 122.422 160.641 123.547 160.328C124.672 160.016 125.672 159.5 126.547 158.781C127.203 158.188 127.906 157.438 128.656 156.531C129.281 155.75 129.969 154.766 130.719 153.578C131.5 152.391 132.266 150.953 133.016 149.266C132.891 150.672 132.797 151.844 132.734 152.781C132.703 153.688 132.656 154.422 132.594 154.984C132.531 155.641 132.484 156.141 132.453 156.484C132.453 156.859 132.406 157.391 132.312 158.078C132.25 158.672 132.141 159.484 131.984 160.516C131.859 161.516 131.688 162.797 131.469 164.359C130 164.391 128.609 164.422 127.297 164.453C125.984 164.453 124.828 164.469 123.828 164.5C122.641 164.531 121.547 164.562 120.547 164.594C119.516 164.594 118.375 164.641 117.125 164.734C116.031 164.797 114.734 164.891 113.234 165.016C111.766 165.141 110.141 165.312 108.359 165.531C108.516 163.406 108.625 161.406 108.688 159.531C108.781 157.625 108.844 155.953 108.875 154.516C108.906 152.828 108.906 151.266 108.875 149.828C109.031 146.234 108.969 143.328 108.688 141.109C108.406 138.891 108.078 137.469 107.703 136.844C107.516 136.625 107.25 136.359 106.906 136.047C106.625 135.797 106.234 135.5 105.734 135.156C105.234 134.812 104.609 134.422 103.859 133.984ZM132.781 131.781C133.781 131.938 134.688 132.078 135.5 132.203C136.312 132.297 137.016 132.375 137.609 132.438C138.297 132.531 138.906 132.609 139.438 132.672C140.094 132.766 141.078 132.656 142.391 132.344C143.703 132 145.141 131.688 146.703 131.406C148.297 131.094 149.922 130.922 151.578 130.891C153.234 130.828 154.75 131.125 156.125 131.781C157.5 132.438 158.625 133.094 159.5 133.75C160.375 134.406 161.062 135.109 161.562 135.859C162.094 136.578 162.469 137.344 162.688 138.156C162.906 138.969 163.031 139.859 163.062 140.828C163.031 142.266 162.688 143.656 162.031 145C161.75 145.562 161.375 146.156 160.906 146.781C160.469 147.375 159.922 147.953 159.266 148.516C158.609 149.078 157.828 149.609 156.922 150.109C156.047 150.609 155.016 151.047 153.828 151.422C154.984 151.766 155.938 152.172 156.688 152.641C157.469 153.109 158.094 153.547 158.562 153.953C159.125 154.453 159.547 154.938 159.828 155.406C160.172 156.062 160.406 156.625 160.531 157.094C160.656 157.562 160.734 158.016 160.766 158.453C160.828 158.859 160.906 159.281 161 159.719C161.094 160.156 161.297 160.656 161.609 161.219C161.859 161.656 162.156 162.109 162.5 162.578C162.812 162.984 163.172 163.422 163.578 163.891C164.016 164.359 164.547 164.812 165.172 165.25C164.297 165.281 163.484 165.297 162.734 165.297C162.016 165.297 161.391 165.297 160.859 165.297C160.234 165.297 159.641 165.281 159.078 165.25C158.516 165.219 157.812 165.203 156.969 165.203C156.25 165.203 155.328 165.203 154.203 165.203C153.109 165.203 151.781 165.219 150.219 165.25C150.906 164.719 151.469 164.188 151.906 163.656C152.344 163.125 152.688 162.641 152.938 162.203C153.219 161.703 153.422 161.219 153.547 160.75C153.703 159.906 153.719 159.031 153.594 158.125C153.5 157.344 153.25 156.484 152.844 155.547C152.438 154.578 151.781 153.609 150.875 152.641C149.969 152.797 149.203 152.922 148.578 153.016C147.984 153.078 147.469 153.141 147.031 153.203C146.531 153.266 146.125 153.312 145.812 153.344C145.531 153.375 145.219 153.406 144.875 153.438C144.594 153.469 144.281 153.516 143.938 153.578C143.625 153.609 143.328 153.656 143.047 153.719C142.984 155.062 142.984 156.234 143.047 157.234C143.109 158.203 143.188 159.016 143.281 159.672C143.406 160.453 143.547 161.125 143.703 161.688C143.859 162.25 144.078 162.797 144.359 163.328C144.578 163.766 144.859 164.234 145.203 164.734C145.547 165.203 145.938 165.594 146.375 165.906C145.562 165.906 144.781 165.906 144.031 165.906C143.312 165.906 142.656 165.891 142.062 165.859C141.375 165.859 140.719 165.844 140.094 165.812C139.469 165.781 138.766 165.766 137.984 165.766C137.328 165.766 136.547 165.766 135.641 165.766C134.766 165.766 133.812 165.781 132.781 165.812C133.594 164.969 134.234 164.25 134.703 163.656C135.172 163.062 135.531 162.562 135.781 162.156C136.062 161.719 136.234 161.344 136.297 161.031C136.359 160.531 136.406 159.641 136.438 158.359C136.5 157.047 136.547 155.547 136.578 153.859C136.609 152.172 136.625 150.406 136.625 148.562C136.625 146.719 136.609 145 136.578 143.406C136.547 141.781 136.516 140.391 136.484 139.234C136.453 138.078 136.422 137.344 136.391 137.031C136.297 136.469 136.094 135.906 135.781 135.344C135.531 134.844 135.172 134.281 134.703 133.656C134.234 133.031 133.594 132.406 132.781 131.781ZM150.5 148.281C150.812 148.094 151.078 147.906 151.297 147.719C151.516 147.531 151.703 147.234 151.859 146.828C152.016 146.391 152.141 145.781 152.234 145C152.359 144.219 152.5 143.156 152.656 141.812C152.781 140.469 152.688 139.359 152.375 138.484C152.094 137.609 151.703 136.922 151.203 136.422C150.734 135.891 150.203 135.531 149.609 135.344C149.047 135.125 148.547 135.016 148.109 135.016C147.234 135.016 146.375 135.281 145.531 135.812C144.688 136.344 144.047 137.062 143.609 137.969C143.453 138.375 143.312 139.047 143.188 139.984C143.094 140.797 143.031 141.922 143 143.359C142.969 144.797 143.016 146.688 143.141 149.031C144.328 149.219 145.375 149.297 146.281 149.266C147.188 149.203 147.953 149.094 148.578 148.938C149.328 148.781 149.969 148.562 150.5 148.281ZM162.547 132.438C163.734 132.719 164.797 132.938 165.734 133.094C166.703 133.219 167.516 133.312 168.172 133.375C168.953 133.469 169.641 133.5 170.234 133.469C170.984 133.438 171.922 133.328 173.047 133.141C174.172 132.953 175.359 132.766 176.609 132.578C177.859 132.391 179.094 132.234 180.312 132.109C181.531 131.984 182.594 131.969 183.5 132.062C184.406 132.156 185.359 132.375 186.359 132.719C187.359 133.031 188.297 133.469 189.172 134.031C190.047 134.562 190.797 135.219 191.422 136C192.078 136.781 192.484 137.688 192.641 138.719C192.797 139.719 192.703 140.797 192.359 141.953C192.016 143.078 191.469 144.188 190.719 145.281C189.969 146.344 189.031 147.328 187.906 148.234C186.781 149.141 185.531 149.875 184.156 150.438C183.062 150.844 181.875 151.156 180.594 151.375C179.5 151.562 178.219 151.688 176.75 151.75C175.312 151.781 173.781 151.625 172.156 151.281C171.938 152.188 171.812 153.031 171.781 153.812C171.781 154.562 171.812 155.234 171.875 155.828C171.969 156.516 172.094 157.141 172.25 157.703C172.438 158.266 172.672 158.922 172.953 159.672C173.203 160.297 173.484 161.062 173.797 161.969C174.141 162.844 174.547 163.828 175.016 164.922C174.453 164.922 173.906 164.938 173.375 164.969C172.844 164.969 172.359 164.984 171.922 165.016C171.422 165.047 170.953 165.078 170.516 165.109C170.016 165.141 169.453 165.203 168.828 165.297C168.297 165.359 167.625 165.453 166.812 165.578C166.031 165.703 165.141 165.859 164.141 166.047C164.797 165.109 165.312 164.25 165.688 163.469C166.094 162.656 166.391 161.953 166.578 161.359C166.797 160.672 166.938 160.047 167 159.484C167.031 159.016 167.031 158.188 167 157C167 155.812 166.984 154.438 166.953 152.875C166.922 151.312 166.875 149.672 166.812 147.953C166.75 146.234 166.672 144.625 166.578 143.125C166.484 141.594 166.375 140.281 166.25 139.188C166.156 138.094 166.062 137.375 165.969 137.031C165.844 136.625 165.625 136.188 165.312 135.719C165.062 135.312 164.703 134.844 164.234 134.312C163.797 133.75 163.234 133.125 162.547 132.438ZM172.25 141.672C172.219 141.984 172.203 142.312 172.203 142.656C172.203 143.312 172.25 144.156 172.344 145.188C172.562 145.719 172.828 146.156 173.141 146.5C173.484 146.844 173.844 147.109 174.219 147.297C174.625 147.484 175.031 147.609 175.438 147.672C175.844 147.734 176.25 147.766 176.656 147.766C177.594 147.734 178.578 147.516 179.609 147.109C180.984 146.516 181.953 145.672 182.516 144.578C183.078 143.484 183.375 142.359 183.406 141.203C183.438 140.047 183.234 138.984 182.797 138.016C182.391 137.047 181.891 136.391 181.297 136.047C180.797 135.828 180.156 135.734 179.375 135.766C178.688 135.797 177.828 135.969 176.797 136.281C175.766 136.594 174.5 137.156 173 137.969C172.844 138.531 172.719 139.031 172.625 139.469C172.531 139.906 172.453 140.297 172.391 140.641C172.328 141.016 172.281 141.359 172.25 141.672Z" fill="white"/>
</g>
<defs>
<filter id="filter0_d_245_23" x="0" y="0" width="298" height="298" filterUnits="userSpaceOnUse" color-interpolation-filters="sRGB">
<feFlood flood-opacity="0" result="BackgroundImageFix"/>
<feColorMatrix in="SourceAlpha" type="matrix" values="0 0 0 0 0 0 0 0 0 0 0 0 0 0 0 0 0 0 127 0" result="hardAlpha"/>
<feMorphology radius="20" operator="dilate" in="SourceAlpha" result="effect1_dropShadow_245_23"/>
<feOffset/>
<feGaussianBlur stdDeviation="14.5"/>
<feComposite in2="hardAlpha" operator="out"/>
<feColorMatrix type="matrix" values="0 0 0 0 1 0 0 0 0 1 0 0 0 0 1 0 0 0 0.62 0"/>
<feBlend mode="normal" in2="BackgroundImageFix" result="effect1_dropShadow_245_23"/>
<feBlend mode="normal" in="SourceGraphic" in2="effect1_dropShadow_245_23" result="shape"/>
</filter>
</defs>
</svg>
