<svg width="37" height="46" viewBox="0 0 37 46" fill="none" xmlns="http://www.w3.org/2000/svg">
<path d="M0 6C0 2.68629 2.68629 0 6 0H37V46H6C2.68629 46 0 43.3137 0 40V6Z" fill="#D0D0D0"/>
<path d="M18.835 29.2381C18.1829 29.2381 17.5575 28.9847 17.0964 28.5338C16.6353 28.0828 16.3763 27.4711 16.3763 26.8333C16.3763 25.4987 17.4704 24.4286 18.835 24.4286C19.4871 24.4286 20.1125 24.6819 20.5736 25.1329C21.0347 25.5839 21.2937 26.1956 21.2937 26.8333C21.2937 27.4711 21.0347 28.0828 20.5736 28.5338C20.1125 28.9847 19.4871 29.2381 18.835 29.2381ZM26.2113 32.8452V20.8214H11.4588V32.8452H26.2113ZM26.2113 18.4167C26.8634 18.4167 27.4887 18.67 27.9498 19.121C28.411 19.572 28.67 20.1836 28.67 20.8214V32.8452C28.67 33.483 28.411 34.0947 27.9498 34.5457C27.4887 34.9966 26.8634 35.25 26.2113 35.25H11.4588C10.8066 35.25 10.1813 34.9966 9.72015 34.5457C9.25905 34.0947 9 33.483 9 32.8452V20.8214C9 19.4868 10.0941 18.4167 11.4588 18.4167H12.6881V16.0119C12.6881 14.4174 13.3357 12.8883 14.4885 11.7608C15.6413 10.6334 17.2047 10 18.835 10C19.6422 10 20.4415 10.1555 21.1873 10.4576C21.9331 10.7598 22.6107 11.2026 23.1815 11.7608C23.7523 12.3191 24.2051 12.9819 24.514 13.7112C24.8229 14.4406 24.9819 15.2224 24.9819 16.0119V18.4167H26.2113ZM18.835 12.4048C17.8568 12.4048 16.9188 12.7848 16.2271 13.4613C15.5354 14.1377 15.1469 15.0552 15.1469 16.0119V18.4167H22.5231V16.0119C22.5231 15.0552 22.1346 14.1377 21.4429 13.4613C20.7512 12.7848 19.8132 12.4048 18.835 12.4048Z" fill="#343434"/>
</svg>
