<svg width="90" height="90" viewBox="0 0 90 90" fill="none" xmlns="http://www.w3.org/2000/svg">
<rect width="90" height="90" rx="6" fill="#EAEAEA"/>
<path d="M79.4179 20.4997L45.6679 9.24967C45.2344 9.10493 44.7656 9.10493 44.332 9.24967L10.582 20.4997C10.1623 20.6398 9.7973 20.9083 9.53863 21.2673C9.27995 21.6263 9.14072 22.0576 9.14062 22.5001V50.6251C9.14062 51.1845 9.36286 51.721 9.75845 52.1166C10.154 52.5122 10.6906 52.7344 11.25 52.7344C11.8094 52.7344 12.346 52.5122 12.7416 52.1166C13.1371 51.721 13.3594 51.1845 13.3594 50.6251V25.4251L26.9578 29.9602C25.243 32.4945 24.0809 35.3614 23.5473 38.3744C23.0137 41.3875 23.1205 44.4791 23.8607 47.4482C24.6009 50.4172 25.9579 53.1971 27.8435 55.6071C29.729 58.017 32.1009 60.0029 34.8047 61.4356C28.0371 63.7313 22.1484 68.3227 17.9297 74.795C17.6872 75.2595 17.6262 75.7976 17.7587 76.3045C17.8911 76.8114 18.2075 77.2509 18.6462 77.5374C19.0849 77.8239 19.6146 77.9369 20.132 77.8543C20.6494 77.7717 21.1176 77.4995 21.4453 77.0907C26.884 68.7622 35.4656 63.9844 45 63.9844C54.5343 63.9844 63.116 68.7622 68.5547 77.0907C68.8804 77.5082 69.3512 77.7879 69.8737 77.8742C70.3961 77.9606 70.9319 77.8473 71.3747 77.5568C71.8175 77.2664 72.1348 76.82 72.2636 76.3064C72.3925 75.7928 72.3235 75.2495 72.0703 74.7844C67.8515 68.3227 61.9699 63.7313 55.1953 61.4251C57.8976 59.9908 60.2678 58.0037 62.1516 55.5931C64.0354 53.1825 65.3906 50.4023 66.1291 47.4333C66.8676 44.4644 66.9728 41.3733 66.438 38.361C65.9031 35.3488 64.7401 32.4828 63.0246 29.9497L79.4179 24.5005C79.8374 24.3601 80.2021 24.0915 80.4606 23.7325C80.719 23.3735 80.858 22.9424 80.858 22.5001C80.858 22.0577 80.719 21.6266 80.4606 21.2676C80.2021 20.9087 79.8374 20.64 79.4179 20.4997ZM62.5781 42.1876C62.5793 44.9886 61.9112 47.7493 60.6293 50.2398C59.3475 52.7303 57.489 54.8784 55.2088 56.5051C52.9286 58.1319 50.2927 59.1901 47.5207 59.5918C44.7486 59.9935 41.9207 59.7269 39.2725 58.8142C36.6244 57.9016 34.2327 56.3693 32.2967 54.3451C30.3607 52.3209 28.9364 49.8633 28.1426 47.1771C27.3488 44.491 27.2083 41.654 27.733 38.9026C28.2577 36.1512 29.4323 33.5649 31.159 31.3594L44.332 35.7505C44.7656 35.8952 45.2344 35.8952 45.6679 35.7505L58.841 31.3594C61.2661 34.4474 62.5823 38.2612 62.5781 42.1876ZM45 31.5282L17.9297 22.5001L45 13.4719L72.0703 22.5001L45 31.5282Z" fill="black"/>
</svg>
