<svg width="25" height="25" viewBox="0 0 25 25" fill="none" xmlns="http://www.w3.org/2000/svg">
<circle cx="12.5001" cy="12.5" r="8.125" fill="black"/>
<path d="M17.7084 3.47917C19.2919 4.39343 20.6069 5.70842 21.5212 7.29196C22.4354 8.87551 22.9167 10.6718 22.9167 12.5003C22.9167 14.3289 22.4354 16.1252 21.5211 17.7087C20.6068 19.2922 19.2918 20.6072 17.7083 21.5214C16.1247 22.4357 14.3284 22.917 12.4999 22.9169C10.6714 22.9169 8.87506 22.4356 7.29154 21.5213C5.70801 20.607 4.39305 19.292 3.47883 17.7084C2.5646 16.1248 2.08333 14.3285 2.08337 12.5L2.08858 12.1625C2.14692 10.3635 2.6704 8.61038 3.608 7.07396C4.54559 5.53753 5.8653 4.27027 7.43847 3.39572C9.01163 2.52116 10.7846 2.06917 12.5844 2.08379C14.3843 2.09842 16.1496 2.57917 17.7084 3.47917ZM15.625 7.29167H9.37504C8.03442 7.29167 7.98754 9.23334 9.2365 9.36771L9.37504 9.375H10.4167C10.7824 9.37501 11.1416 9.47128 11.4583 9.65413C11.775 9.83698 12.038 10.1 12.2209 10.4167H9.37504C9.09877 10.4167 8.83382 10.5264 8.63847 10.7218C8.44312 10.9171 8.33337 11.1821 8.33337 11.4583C8.33337 11.7346 8.44312 11.9996 8.63847 12.1949C8.83382 12.3903 9.09877 12.5 9.37504 12.5L12.2209 12.501C12.0379 12.8176 11.7749 13.0803 11.4582 13.263C11.1415 13.4457 10.7823 13.5418 10.4167 13.5417H9.37504C8.44796 13.5417 7.98233 14.6635 8.63858 15.3198L11.7636 18.4448C11.9589 18.6401 12.2238 18.7498 12.5 18.7498C12.7763 18.7498 13.0412 18.6401 13.2365 18.4448L13.323 18.3469C13.4784 18.1465 13.5554 17.8962 13.5395 17.643C13.5236 17.3899 13.4158 17.1512 13.2365 16.9719L11.6907 15.425L11.8084 15.3865C12.4512 15.158 13.0283 14.7756 13.4892 14.2726C13.95 13.7696 14.2807 13.1614 14.4521 12.501L15.625 12.5C15.9013 12.5 16.1663 12.3903 16.3616 12.1949C16.557 11.9996 16.6667 11.7346 16.6667 11.4583C16.6667 11.1821 16.557 10.9171 16.3616 10.7218C16.1663 10.5264 15.9013 10.4167 15.625 10.4167H14.4521C14.3723 10.1075 14.2569 9.80867 14.1084 9.52605L14.0261 9.375H15.625C15.9013 9.375 16.1663 9.26526 16.3616 9.06991C16.557 8.87456 16.6667 8.60961 16.6667 8.33334L16.6594 8.21146C16.6296 7.95808 16.5078 7.72446 16.3171 7.55492C16.1264 7.38538 15.8802 7.29171 15.625 7.29167Z" fill="white"/>
</svg>
