<svg width="40" height="40" viewBox="0 0 40 40" fill="none" xmlns="http://www.w3.org/2000/svg">
<path d="M25.0032 4.33333C28.2537 4.33333 31.0113 5.4994 33.2761 7.83156C35.5409 10.1637 36.6727 13.0028 36.6716 16.3488H33.3378C33.3378 15.2045 33.1361 14.1391 32.7327 13.1527C32.3293 12.1663 31.7809 11.2863 31.0875 10.5127L28.7954 14.5036C28.5176 14.9613 28.2193 15.462 27.9003 16.0055C27.5814 16.5491 27.2408 17.0211 26.8785 17.4216C26.4895 17.8508 26.0034 18.0653 25.4199 18.0653C24.8365 18.0653 24.3364 17.8651 23.9197 17.4646C23.503 17.064 23.2946 16.5634 23.2946 15.9626C23.2946 15.3618 23.503 14.8469 23.9197 14.4178C24.3087 14.0172 24.7743 13.6596 25.3166 13.345C25.8589 13.0303 26.3517 12.7299 26.7951 12.4438L30.6707 10.0836C29.9206 9.36839 29.0666 8.80367 28.1087 8.38942C27.1508 7.97517 26.1156 7.76747 25.0032 7.76633V4.33333ZM20.1275 38.6633C17.7938 38.6633 15.6062 38.2056 13.5648 37.2901C11.5234 36.3747 9.74537 35.1376 8.2307 33.5791C6.71603 32.0193 5.51418 30.1884 4.62516 28.0863C3.73614 25.9841 3.29163 23.7309 3.29163 21.3267C3.29163 17.1499 4.58349 13.4668 7.16721 10.2776C9.75093 7.08831 13.0431 5.1069 17.0437 4.33333C16.5436 7.16555 16.6964 9.9337 17.5021 12.6378C18.3078 15.3418 19.6969 17.7089 21.6694 19.7389C23.6419 21.7701 25.9411 23.2005 28.5671 24.0302C31.193 24.8598 33.8807 25.0172 36.63 24.5022C35.9076 28.6218 33.9907 32.0119 30.8791 34.6725C27.7675 37.333 24.1836 38.6633 20.1275 38.6633Z" fill="black"/>
</svg>
