<svg width="25" height="25" viewBox="0 0 25 25" fill="none" xmlns="http://www.w3.org/2000/svg">
<path d="M15.5417 9.375C14.4371 9.375 13.5417 8.47957 13.5417 7.375V5.125C13.5417 4.02043 14.4371 3.125 15.5417 3.125H19.875C20.9796 3.125 21.875 4.02043 21.875 5.125V7.375C21.875 8.47957 20.9796 9.375 19.875 9.375H15.5417ZM5.125 13.5417C4.02043 13.5417 3.125 12.6462 3.125 11.5417V5.125C3.125 4.02043 4.02043 3.125 5.125 3.125H9.45833C10.5629 3.125 11.4583 4.02043 11.4583 5.125V11.5417C11.4583 12.6462 10.5629 13.5417 9.45833 13.5417H5.125ZM15.5417 21.875C14.4371 21.875 13.5417 20.9796 13.5417 19.875V13.4583C13.5417 12.3538 14.4371 11.4583 15.5417 11.4583H19.875C20.9796 11.4583 21.875 12.3538 21.875 13.4583V19.875C21.875 20.9796 20.9796 21.875 19.875 21.875H15.5417ZM5.125 21.875C4.02043 21.875 3.125 20.9796 3.125 19.875V17.625C3.125 16.5204 4.02043 15.625 5.125 15.625H9.45833C10.5629 15.625 11.4583 16.5204 11.4583 17.625V19.875C11.4583 20.9796 10.5629 21.875 9.45833 21.875H5.125Z" fill="#000454"/>
</svg>
