<svg width="20" height="20" viewBox="0 0 20 20" fill="none" xmlns="http://www.w3.org/2000/svg">
<path d="M16.6925 17.325C17.0759 17.7083 17.6675 17.1167 17.2842 16.7417L14.1592 13.6083C15.2554 12.3954 15.8613 10.8182 15.8592 9.18332C15.8592 5.52499 12.8842 2.54999 9.22586 2.54999C5.56753 2.54999 2.59253 5.52499 2.59253 9.18332C2.59253 12.8417 5.56753 15.8167 9.22586 15.8167C10.8759 15.8167 12.4009 15.2083 13.5675 14.2L16.6925 17.325ZM3.42503 9.18332C3.42503 5.98332 6.03336 3.38332 9.22503 3.38332C12.425 3.38332 15.025 5.98332 15.025 9.18332C15.025 12.3833 12.425 14.9833 9.22503 14.9833C6.03336 14.9833 3.42503 12.3833 3.42503 9.18332Z" fill="#BEBEBE"/>
</svg>
