<svg width="20" height="20" viewBox="0 0 20 20" fill="none" xmlns="http://www.w3.org/2000/svg">
<g id="Group">
<path id="Vector" d="M12.5 15.8333C12.5001 16.2538 12.3413 16.6588 12.0554 16.9671C11.7695 17.2754 11.3776 17.4643 10.9583 17.4958L10.8333 17.5H9.16666C8.74618 17.5001 8.34119 17.3413 8.03287 17.0554C7.72455 16.7695 7.5357 16.3776 7.50416 15.9583L7.5 15.8333H12.5ZM10 1.66666C11.5125 1.66663 12.9658 2.25407 14.0535 3.30505C15.1412 4.35604 15.7781 5.7884 15.83 7.29999L15.8333 7.49999V10.6367L17.3517 13.6733C17.4179 13.8058 17.4511 13.9524 17.4483 14.1005C17.4455 14.2486 17.4069 14.3939 17.3357 14.5238C17.2645 14.6537 17.1629 14.7645 17.0396 14.8465C16.9162 14.9286 16.7748 14.9795 16.6275 14.995L16.5317 15H3.46833C3.32013 15 3.17413 14.9641 3.04285 14.8954C2.91156 14.8267 2.79889 14.7271 2.71451 14.6053C2.63013 14.4835 2.57654 14.343 2.55833 14.1959C2.54013 14.0488 2.55786 13.8995 2.61 13.7608L2.64833 13.6733L4.16666 10.6367V7.49999C4.16666 5.95289 4.78124 4.46916 5.87521 3.3752C6.96917 2.28124 8.4529 1.66666 10 1.66666Z" fill="black"/>
</g>
</svg>
