<svg width="200" height="200" viewBox="0 0 200 200" fill="none" xmlns="http://www.w3.org/2000/svg">
<rect x="2" y="2" width="196" height="196" rx="98" fill="#000454"/>
<rect x="2" y="2" width="196" height="196" rx="98" stroke="white" stroke-width="4"/>
<path d="M54.8594 84.9844C57.0469 85.0469 58.8594 85.0938 60.2969 85.125C61.7656 85.125 62.9531 85.125 63.8594 85.125H66.3438H80.3125C80.375 85.75 80.4219 86.3594 80.4531 86.9531C80.5156 87.5156 80.5469 88.0156 80.5469 88.4531C80.5469 88.9844 80.5312 89.4688 80.5 89.9062C80.4688 90.3438 80.4219 90.8125 80.3594 91.3125C80.2969 91.75 80.2344 92.2188 80.1719 92.7188C80.1094 93.2188 80 93.7344 79.8438 94.2656C79.4062 92.5781 78.8125 91.2969 78.0625 90.4219C77.3438 89.5469 76.6094 88.9062 75.8594 88.5C74.9844 88.0312 74.0625 87.7812 73.0938 87.75C71.8125 87.8125 70.8125 87.9219 70.0938 88.0781C69.375 88.2344 68.8125 88.4531 68.4062 88.7344C68 89.0156 67.6875 89.3438 67.4688 89.7188C67.2812 90.0625 67.0781 90.4531 66.8594 90.8906C66.6719 91.2656 66.5 91.8438 66.3438 92.625C66.1875 93.2812 66.0312 94.1719 65.875 95.2969C65.75 96.4219 65.6094 97.875 65.4531 99.6562C66.2969 99.4062 66.9688 99.1719 67.4688 98.9531C68 98.7344 68.4219 98.5469 68.7344 98.3906C69.0781 98.2031 69.3281 98.0312 69.4844 97.875C69.6094 97.6875 69.7969 97.3438 70.0469 96.8438C70.2344 96.4062 70.4844 95.8125 70.7969 95.0625C71.1406 94.3125 71.5469 93.2812 72.0156 91.9688C72.0781 93.4062 72.1094 94.6094 72.1094 95.5781C72.1094 96.5156 72.125 97.2812 72.1562 97.875C72.1562 98.5625 72.1719 99.1094 72.2031 99.5156V101.297C72.2031 101.953 72.2031 102.844 72.2031 103.969C72.2344 105.062 72.2812 106.453 72.3438 108.141C71.9688 106.984 71.625 106.078 71.3125 105.422C71.0312 104.734 70.7812 104.219 70.5625 103.875C70.3125 103.469 70.0938 103.188 69.9062 103.031C69.6875 102.969 69.3906 102.906 69.0156 102.844C68.6719 102.812 68.2344 102.797 67.7031 102.797C67.2031 102.797 66.5625 102.875 65.7812 103.031C65.6875 104.75 65.6719 106.141 65.7344 107.203C65.8281 108.234 65.9531 109.031 66.1094 109.594C66.2656 110.25 66.4531 110.719 66.6719 111C66.9531 111.281 67.5156 111.516 68.3594 111.703C69.2031 111.859 70.1562 111.922 71.2188 111.891C72.3125 111.828 73.4219 111.641 74.5469 111.328C75.6719 111.016 76.6719 110.5 77.5469 109.781C78.2031 109.188 78.9062 108.438 79.6562 107.531C80.2812 106.75 80.9688 105.766 81.7188 104.578C82.5 103.391 83.2656 101.953 84.0156 100.266C83.8906 101.672 83.7969 102.844 83.7344 103.781C83.7031 104.688 83.6562 105.422 83.5938 105.984C83.5312 106.641 83.4844 107.141 83.4531 107.484C83.4531 107.859 83.4062 108.391 83.3125 109.078C83.25 109.672 83.1406 110.484 82.9844 111.516C82.8594 112.516 82.6875 113.797 82.4688 115.359C81 115.391 79.6094 115.422 78.2969 115.453C76.9844 115.453 75.8281 115.469 74.8281 115.5C73.6406 115.531 72.5469 115.562 71.5469 115.594C70.5156 115.594 69.375 115.641 68.125 115.734C67.0312 115.797 65.7344 115.891 64.2344 116.016C62.7656 116.141 61.1406 116.312 59.3594 116.531C59.5156 114.406 59.625 112.406 59.6875 110.531C59.7812 108.625 59.8438 106.953 59.875 105.516C59.9062 103.828 59.9062 102.266 59.875 100.828C60.0312 97.2344 59.9688 94.3281 59.6875 92.1094C59.4062 89.8906 59.0781 88.4688 58.7031 87.8438C58.5156 87.625 58.25 87.3594 57.9062 87.0469C57.625 86.7969 57.2344 86.5 56.7344 86.1562C56.2344 85.8125 55.6094 85.4219 54.8594 84.9844ZM83.7812 82.7812C84.7812 82.9375 85.6875 83.0781 86.5 83.2031C87.3125 83.2969 88.0156 83.375 88.6094 83.4375C89.2969 83.5312 89.9062 83.6094 90.4375 83.6719C91.0938 83.7656 92.0781 83.6562 93.3906 83.3438C94.7031 83 96.1406 82.6875 97.7031 82.4062C99.2969 82.0938 100.922 81.9219 102.578 81.8906C104.234 81.8281 105.75 82.125 107.125 82.7812C108.5 83.4375 109.625 84.0938 110.5 84.75C111.375 85.4062 112.062 86.1094 112.562 86.8594C113.094 87.5781 113.469 88.3438 113.688 89.1562C113.906 89.9688 114.031 90.8594 114.062 91.8281C114.031 93.2656 113.688 94.6562 113.031 96C112.75 96.5625 112.375 97.1562 111.906 97.7812C111.469 98.375 110.922 98.9531 110.266 99.5156C109.609 100.078 108.828 100.609 107.922 101.109C107.047 101.609 106.016 102.047 104.828 102.422C105.984 102.766 106.938 103.172 107.688 103.641C108.469 104.109 109.094 104.547 109.562 104.953C110.125 105.453 110.547 105.938 110.828 106.406C111.172 107.062 111.406 107.625 111.531 108.094C111.656 108.562 111.734 109.016 111.766 109.453C111.828 109.859 111.906 110.281 112 110.719C112.094 111.156 112.297 111.656 112.609 112.219C112.859 112.656 113.156 113.109 113.5 113.578C113.812 113.984 114.172 114.422 114.578 114.891C115.016 115.359 115.547 115.812 116.172 116.25C115.297 116.281 114.484 116.297 113.734 116.297C113.016 116.297 112.391 116.297 111.859 116.297C111.234 116.297 110.641 116.281 110.078 116.25C109.516 116.219 108.812 116.203 107.969 116.203C107.25 116.203 106.328 116.203 105.203 116.203C104.109 116.203 102.781 116.219 101.219 116.25C101.906 115.719 102.469 115.188 102.906 114.656C103.344 114.125 103.688 113.641 103.938 113.203C104.219 112.703 104.422 112.219 104.547 111.75C104.703 110.906 104.719 110.031 104.594 109.125C104.5 108.344 104.25 107.484 103.844 106.547C103.438 105.578 102.781 104.609 101.875 103.641C100.969 103.797 100.203 103.922 99.5781 104.016C98.9844 104.078 98.4688 104.141 98.0312 104.203C97.5312 104.266 97.125 104.312 96.8125 104.344C96.5312 104.375 96.2188 104.406 95.875 104.438C95.5938 104.469 95.2812 104.516 94.9375 104.578C94.625 104.609 94.3281 104.656 94.0469 104.719C93.9844 106.062 93.9844 107.234 94.0469 108.234C94.1094 109.203 94.1875 110.016 94.2812 110.672C94.4062 111.453 94.5469 112.125 94.7031 112.688C94.8594 113.25 95.0781 113.797 95.3594 114.328C95.5781 114.766 95.8594 115.234 96.2031 115.734C96.5469 116.203 96.9375 116.594 97.375 116.906C96.5625 116.906 95.7812 116.906 95.0312 116.906C94.3125 116.906 93.6562 116.891 93.0625 116.859C92.375 116.859 91.7188 116.844 91.0938 116.812C90.4688 116.781 89.7656 116.766 88.9844 116.766C88.3281 116.766 87.5469 116.766 86.6406 116.766C85.7656 116.766 84.8125 116.781 83.7812 116.812C84.5938 115.969 85.2344 115.25 85.7031 114.656C86.1719 114.062 86.5312 113.562 86.7812 113.156C87.0625 112.719 87.2344 112.344 87.2969 112.031C87.3594 111.531 87.4062 110.641 87.4375 109.359C87.5 108.047 87.5469 106.547 87.5781 104.859C87.6094 103.172 87.625 101.406 87.625 99.5625C87.625 97.7188 87.6094 96 87.5781 94.4062C87.5469 92.7812 87.5156 91.3906 87.4844 90.2344C87.4531 89.0781 87.4219 88.3438 87.3906 88.0312C87.2969 87.4688 87.0938 86.9062 86.7812 86.3438C86.5312 85.8438 86.1719 85.2812 85.7031 84.6562C85.2344 84.0312 84.5938 83.4062 83.7812 82.7812ZM101.5 99.2812C101.812 99.0938 102.078 98.9062 102.297 98.7188C102.516 98.5312 102.703 98.2344 102.859 97.8281C103.016 97.3906 103.141 96.7812 103.234 96C103.359 95.2188 103.5 94.1562 103.656 92.8125C103.781 91.4688 103.688 90.3594 103.375 89.4844C103.094 88.6094 102.703 87.9219 102.203 87.4219C101.734 86.8906 101.203 86.5312 100.609 86.3438C100.047 86.125 99.5469 86.0156 99.1094 86.0156C98.2344 86.0156 97.375 86.2812 96.5312 86.8125C95.6875 87.3438 95.0469 88.0625 94.6094 88.9688C94.4531 89.375 94.3125 90.0469 94.1875 90.9844C94.0938 91.7969 94.0312 92.9219 94 94.3594C93.9688 95.7969 94.0156 97.6875 94.1406 100.031C95.3281 100.219 96.375 100.297 97.2812 100.266C98.1875 100.203 98.9531 100.094 99.5781 99.9375C100.328 99.7812 100.969 99.5625 101.5 99.2812ZM113.547 83.4375C114.734 83.7188 115.797 83.9375 116.734 84.0938C117.703 84.2188 118.516 84.3125 119.172 84.375C119.953 84.4688 120.641 84.5 121.234 84.4688C121.984 84.4375 122.922 84.3281 124.047 84.1406C125.172 83.9531 126.359 83.7656 127.609 83.5781C128.859 83.3906 130.094 83.2344 131.312 83.1094C132.531 82.9844 133.594 82.9688 134.5 83.0625C135.406 83.1562 136.359 83.375 137.359 83.7188C138.359 84.0312 139.297 84.4688 140.172 85.0312C141.047 85.5625 141.797 86.2188 142.422 87C143.078 87.7812 143.484 88.6875 143.641 89.7188C143.797 90.7188 143.703 91.7969 143.359 92.9531C143.016 94.0781 142.469 95.1875 141.719 96.2812C140.969 97.3438 140.031 98.3281 138.906 99.2344C137.781 100.141 136.531 100.875 135.156 101.438C134.062 101.844 132.875 102.156 131.594 102.375C130.5 102.562 129.219 102.688 127.75 102.75C126.312 102.781 124.781 102.625 123.156 102.281C122.938 103.188 122.812 104.031 122.781 104.812C122.781 105.562 122.812 106.234 122.875 106.828C122.969 107.516 123.094 108.141 123.25 108.703C123.438 109.266 123.672 109.922 123.953 110.672C124.203 111.297 124.484 112.062 124.797 112.969C125.141 113.844 125.547 114.828 126.016 115.922C125.453 115.922 124.906 115.938 124.375 115.969C123.844 115.969 123.359 115.984 122.922 116.016C122.422 116.047 121.953 116.078 121.516 116.109C121.016 116.141 120.453 116.203 119.828 116.297C119.297 116.359 118.625 116.453 117.812 116.578C117.031 116.703 116.141 116.859 115.141 117.047C115.797 116.109 116.312 115.25 116.688 114.469C117.094 113.656 117.391 112.953 117.578 112.359C117.797 111.672 117.938 111.047 118 110.484C118.031 110.016 118.031 109.188 118 108C118 106.812 117.984 105.438 117.953 103.875C117.922 102.312 117.875 100.672 117.812 98.9531C117.75 97.2344 117.672 95.625 117.578 94.125C117.484 92.5938 117.375 91.2812 117.25 90.1875C117.156 89.0938 117.062 88.375 116.969 88.0312C116.844 87.625 116.625 87.1875 116.312 86.7188C116.062 86.3125 115.703 85.8438 115.234 85.3125C114.797 84.75 114.234 84.125 113.547 83.4375ZM123.25 92.6719C123.219 92.9844 123.203 93.3125 123.203 93.6562C123.203 94.3125 123.25 95.1562 123.344 96.1875C123.562 96.7188 123.828 97.1562 124.141 97.5C124.484 97.8438 124.844 98.1094 125.219 98.2969C125.625 98.4844 126.031 98.6094 126.438 98.6719C126.844 98.7344 127.25 98.7656 127.656 98.7656C128.594 98.7344 129.578 98.5156 130.609 98.1094C131.984 97.5156 132.953 96.6719 133.516 95.5781C134.078 94.4844 134.375 93.3594 134.406 92.2031C134.438 91.0469 134.234 89.9844 133.797 89.0156C133.391 88.0469 132.891 87.3906 132.297 87.0469C131.797 86.8281 131.156 86.7344 130.375 86.7656C129.688 86.7969 128.828 86.9688 127.797 87.2812C126.766 87.5938 125.5 88.1562 124 88.9688C123.844 89.5312 123.719 90.0312 123.625 90.4688C123.531 90.9062 123.453 91.2969 123.391 91.6406C123.328 92.0156 123.281 92.3594 123.25 92.6719Z" fill="white"/>
</svg>
