<svg width="25" height="25" viewBox="0 0 25 25" fill="none" xmlns="http://www.w3.org/2000/svg">
<path d="M7.5 12.5C9.91797 12.5 11.875 10.0537 11.875 7.03125C11.875 4.00879 9.91797 1.5625 7.5 1.5625C5.08203 1.5625 3.125 4.00879 3.125 7.03125C3.125 10.0537 5.08203 12.5 7.5 12.5ZM10.5 14.0625H10.1758C9.36328 14.5508 8.46094 14.8438 7.5 14.8438C6.53906 14.8438 5.64062 14.5508 4.82422 14.0625H4.5C2.01562 14.0625 0 16.582 0 19.6875V21.0938C0 22.3877 0.839844 23.4375 1.875 23.4375H13.125C14.1602 23.4375 15 22.3877 15 21.0938V19.6875C15 16.582 12.9844 14.0625 10.5 14.0625ZM18.75 12.5C20.8203 12.5 22.5 10.4004 22.5 7.8125C22.5 5.22461 20.8203 3.125 18.75 3.125C16.6797 3.125 15 5.22461 15 7.8125C15 10.4004 16.6797 12.5 18.75 12.5ZM20.625 14.0625H20.4766C19.9336 14.2969 19.3594 14.4531 18.75 14.4531C18.1406 14.4531 17.5664 14.2969 17.0234 14.0625H16.875C16.0781 14.0625 15.3438 14.3506 14.6992 14.8145C15.6523 16.0986 16.25 17.8027 16.25 19.6875V21.5625C16.25 21.6699 16.2305 21.7725 16.2266 21.875H23.125C24.1602 21.875 25 20.8252 25 19.5312C25 16.5088 23.043 14.0625 20.625 14.0625Z" fill="white"/>
</svg>
