<svg width="40" height="40" viewBox="0 0 40 40" fill="none" xmlns="http://www.w3.org/2000/svg">
<circle cx="20" cy="20" r="14.5" fill="#FF4D00" stroke="#484848"/>
<path d="M28.3334 5.56667C30.867 7.02948 32.971 9.13346 34.4338 11.6671C35.8966 14.2008 36.6667 17.0749 36.6667 20.0005C36.6667 22.9262 35.8966 25.8002 34.4337 28.3339C32.9709 30.8675 30.8669 32.9715 28.3332 34.4343C25.7995 35.8971 22.9254 36.6671 19.9998 36.6671C17.0741 36.667 14.2001 35.8969 11.6664 34.434C9.13279 32.9712 7.02886 30.8671 5.5661 28.3334C4.10334 25.7997 3.3333 22.9256 3.33337 20L3.34171 19.46C3.43505 16.5816 4.27262 13.7766 5.77277 11.3183C7.27293 8.86004 9.38446 6.83242 11.9015 5.43314C14.4186 4.03385 17.2553 3.31066 20.135 3.33406C23.0148 3.35746 25.8394 4.12666 28.3334 5.56667ZM25 11.6667H15C12.855 11.6667 12.78 14.7733 14.7784 14.9883L15 15H16.6667C17.2518 15 17.8266 15.154 18.3333 15.4466C18.84 15.7392 19.2608 16.1599 19.5534 16.6667H15C14.558 16.6667 14.1341 16.8423 13.8215 17.1548C13.509 17.4674 13.3334 17.8913 13.3334 18.3333C13.3334 18.7754 13.509 19.1993 13.8215 19.5118C14.1341 19.8244 14.558 20 15 20L19.5534 20.0017C19.2606 20.5081 18.8397 20.9285 18.333 21.2208C17.8263 21.513 17.2517 21.6668 16.6667 21.6667H15C13.5167 21.6667 12.7717 23.4617 13.8217 24.5117L18.8217 29.5117C19.1343 29.8241 19.5581 29.9996 20 29.9996C20.442 29.9996 20.8658 29.8241 21.1784 29.5117L21.3167 29.355C21.5655 29.0343 21.6887 28.6339 21.6632 28.2289C21.6377 27.8238 21.4653 27.442 21.1784 27.155L18.705 24.68L18.8934 24.6183C19.9219 24.2529 20.8452 23.641 21.5826 22.8362C22.32 22.0314 22.849 21.0582 23.1234 20.0017L25 20C25.4421 20 25.866 19.8244 26.1786 19.5118C26.4911 19.1993 26.6667 18.7754 26.6667 18.3333C26.6667 17.8913 26.4911 17.4674 26.1786 17.1548C25.866 16.8423 25.4421 16.6667 25 16.6667H23.1234C22.9956 16.172 22.8111 15.6939 22.5734 15.2417L22.4417 15H25C25.4421 15 25.866 14.8244 26.1786 14.5118C26.4911 14.1993 26.6667 13.7754 26.6667 13.3333L26.655 13.1383C26.6073 12.7329 26.4124 12.3591 26.1073 12.0879C25.8023 11.8166 25.4083 11.6667 25 11.6667Z" fill="black"/>
</svg>
