<svg width="25" height="25" viewBox="0 0 25 25" fill="none" xmlns="http://www.w3.org/2000/svg">
<path fill-rule="evenodd" clip-rule="evenodd" d="M20.3125 6.77083C19.8981 6.77083 19.5007 6.93545 19.2076 7.22848C18.9146 7.5215 18.75 7.91893 18.75 8.33333V9.375H21.875V8.33333C21.875 7.91893 21.7104 7.5215 21.4174 7.22848C21.1243 6.93545 20.7269 6.77083 20.3125 6.77083ZM21.875 10.4167H18.75V19.0104L20.3125 21.3542L21.875 19.0104V10.4167ZM3.125 4.6875V20.3125C3.125 20.7269 3.28962 21.1243 3.58265 21.4174C3.87567 21.7104 4.2731 21.875 4.6875 21.875H16.1458C16.5602 21.875 16.9577 21.7104 17.2507 21.4174C17.5437 21.1243 17.7083 20.7269 17.7083 20.3125V4.6875C17.7083 4.2731 17.5437 3.87567 17.2507 3.58265C16.9577 3.28962 16.5602 3.125 16.1458 3.125H4.6875C4.2731 3.125 3.87567 3.28962 3.58265 3.58265C3.28962 3.87567 3.125 4.2731 3.125 4.6875ZM10.4167 7.8125C10.4167 7.67437 10.4715 7.54189 10.5692 7.44422C10.6669 7.34654 10.7994 7.29167 10.9375 7.29167H15.1042C15.2423 7.29167 15.3748 7.34654 15.4725 7.44422C15.5701 7.54189 15.625 7.67437 15.625 7.8125C15.625 7.95063 15.5701 8.08311 15.4725 8.18078C15.3748 8.27846 15.2423 8.33333 15.1042 8.33333H10.9375C10.7994 8.33333 10.6669 8.27846 10.5692 8.18078C10.4715 8.08311 10.4167 7.95063 10.4167 7.8125ZM10.9375 9.375C10.7994 9.375 10.6669 9.42987 10.5692 9.52755C10.4715 9.62522 10.4167 9.7577 10.4167 9.89583C10.4167 10.034 10.4715 10.1664 10.5692 10.2641C10.6669 10.3618 10.7994 10.4167 10.9375 10.4167H15.1042C15.2423 10.4167 15.3748 10.3618 15.4725 10.2641C15.5701 10.1664 15.625 10.034 15.625 9.89583C15.625 9.7577 15.5701 9.62522 15.4725 9.52755C15.3748 9.42987 15.2423 9.375 15.1042 9.375H10.9375ZM10.4167 14.5833C10.4167 14.4452 10.4715 14.3127 10.5692 14.215C10.6669 14.1174 10.7994 14.0625 10.9375 14.0625H15.1042C15.2423 14.0625 15.3748 14.1174 15.4725 14.215C15.5701 14.3127 15.625 14.4452 15.625 14.5833C15.625 14.7215 15.5701 14.8539 15.4725 14.9516C15.3748 15.0493 15.2423 15.1042 15.1042 15.1042H10.9375C10.7994 15.1042 10.6669 15.0493 10.5692 14.9516C10.4715 14.8539 10.4167 14.7215 10.4167 14.5833ZM10.9375 16.1458C10.7994 16.1458 10.6669 16.2007 10.5692 16.2984C10.4715 16.3961 10.4167 16.5285 10.4167 16.6667C10.4167 16.8048 10.4715 16.9373 10.5692 17.035C10.6669 17.1326 10.7994 17.1875 10.9375 17.1875H15.1042C15.2423 17.1875 15.3748 17.1326 15.4725 17.035C15.5701 16.9373 15.625 16.8048 15.625 16.6667C15.625 16.5285 15.5701 16.3961 15.4725 16.2984C15.3748 16.2007 15.2423 16.1458 15.1042 16.1458H10.9375ZM6.25 14.5833V16.1458H7.8125V14.5833H6.25ZM5.72917 13.5417H8.33333C8.47147 13.5417 8.60394 13.5965 8.70162 13.6942C8.79929 13.7919 8.85417 13.9244 8.85417 14.0625V16.6667C8.85417 16.8048 8.79929 16.9373 8.70162 17.035C8.60394 17.1326 8.47147 17.1875 8.33333 17.1875H5.72917C5.59103 17.1875 5.45856 17.1326 5.36088 17.035C5.26321 16.9373 5.20833 16.8048 5.20833 16.6667V14.0625C5.20833 13.9244 5.26321 13.7919 5.36088 13.6942C5.45856 13.5965 5.59103 13.5417 5.72917 13.5417ZM9.2224 8.18073C9.31727 8.0825 9.36977 7.95094 9.36858 7.81437C9.36739 7.67781 9.31262 7.54718 9.21605 7.45062C9.11948 7.35405 8.98885 7.29927 8.85229 7.29809C8.71573 7.2969 8.58417 7.3494 8.48594 7.44427L6.77083 9.15938L6.0974 8.48594C5.99917 8.39106 5.8676 8.33857 5.73104 8.33975C5.59448 8.34094 5.46385 8.39572 5.36728 8.49228C5.27072 8.58885 5.21594 8.71948 5.21475 8.85604C5.21357 8.9926 5.26606 9.12417 5.36094 9.2224L6.77083 10.6323L9.2224 8.18073Z" fill="white"/>
</svg>
