<svg width="50" height="50" viewBox="0 0 50 50" fill="none" xmlns="http://www.w3.org/2000/svg">
<rect width="50" height="50" rx="6" fill="#EAEAEA"/>
<path d="M6.25 9.375V12.5H40.625V37.5H18.75V40.625H46.875V37.5H43.75V9.375H6.25ZM12.5031 14.0625C10.847 14.0683 9.26032 14.7285 8.08896 15.8993C6.91761 17.07 6.25659 18.6564 6.25 20.3125C6.25 23.7484 9.06875 26.5625 12.5031 26.5625C14.1584 26.5559 15.744 25.8952 16.9142 24.7245C18.0843 23.5537 18.7442 21.9678 18.75 20.3125C18.75 16.8797 15.9344 14.0625 12.5031 14.0625ZM21.875 15.625V18.75H29.6875V15.625H21.875ZM32.8125 15.625V18.75H37.5V15.625H32.8125ZM12.5031 17.1875C14.2437 17.1875 15.625 18.5672 15.625 20.3125C15.625 22.0625 14.2453 23.4375 12.5031 23.4375C10.7531 23.4375 9.375 22.0625 9.375 20.3125C9.375 18.5672 10.7547 17.1875 12.5031 17.1875ZM21.875 21.875V25H37.5V21.875H21.875ZM6.25 28.125V40.625H9.375V31.25H14.0625V40.625H17.1875V32.2781L20.4125 33.9844C21.3266 34.4688 22.425 34.4672 23.3375 33.9844V33.9875L28.8531 31.0703L27.3953 28.3047L21.8781 31.2219L17.0406 28.6687C16.3655 28.3121 15.6136 28.1254 14.85 28.125H6.25Z" fill="black"/>
</svg>
