<svg width="30" height="30" viewBox="0 0 30 30" fill="none" xmlns="http://www.w3.org/2000/svg">
<path d="M0 6C0 2.68629 2.68629 0 6 0H30V30H6C2.68629 30 0 27.3137 0 24V6Z" fill="#D0D0D0"/>
<path d="M15.2716 19.0683C14.7428 19.0683 14.2358 18.9031 13.8619 18.609C13.488 18.3148 13.278 17.9159 13.278 17.5C13.278 16.6296 14.1651 15.9317 15.2716 15.9317C15.8003 15.9317 16.3074 16.0969 16.6812 16.391C17.0551 16.6851 17.2651 17.084 17.2651 17.5C17.2651 17.9159 17.0551 18.3148 16.6812 18.609C16.3074 18.9031 15.8003 19.0683 15.2716 19.0683ZM21.2523 21.4208V13.5792H9.29082V21.4208H21.2523ZM21.2523 12.0109C21.781 12.0109 22.2881 12.1761 22.662 12.4702C23.0359 12.7643 23.2459 13.1632 23.2459 13.5792V21.4208C23.2459 21.8367 23.0359 22.2357 22.662 22.5298C22.2881 22.8239 21.781 22.9891 21.2523 22.9891H9.29082C8.76209 22.9891 8.25502 22.8239 7.88115 22.5298C7.50728 22.2357 7.29724 21.8367 7.29724 21.4208V13.5792C7.29724 12.7088 8.18438 12.0109 9.29082 12.0109H10.2876V10.4425C10.2876 9.40267 10.8127 8.4054 11.7474 7.67011C12.6821 6.93481 13.9497 6.52173 15.2716 6.52173C15.9261 6.52173 16.5742 6.62314 17.1788 6.82018C17.7835 7.01722 18.3329 7.30603 18.7958 7.67011C19.2586 8.03419 19.6257 8.46641 19.8761 8.94211C20.1266 9.4178 20.2555 9.92765 20.2555 10.4425V12.0109H21.2523ZM15.2716 8.09005C14.4785 8.09005 13.7179 8.3379 13.1571 8.77908C12.5962 9.22025 12.2812 9.81862 12.2812 10.4425V12.0109H18.2619V10.4425C18.2619 9.81862 17.9469 9.22025 17.3861 8.77908C16.8253 8.3379 16.0647 8.09005 15.2716 8.09005Z" fill="#343434"/>
</svg>
