<svg width="50" height="50" viewBox="0 0 50 50" fill="none" xmlns="http://www.w3.org/2000/svg">
<rect width="50" height="50" rx="6" fill="#EAEAEA"/>
<path d="M44.1211 11.3887L25.3711 5.13868C25.1302 5.05827 24.8698 5.05827 24.6289 5.13868L5.87891 11.3887C5.64573 11.4665 5.44295 11.6157 5.29924 11.8152C5.15553 12.0146 5.07818 12.2542 5.07812 12.5V28.125C5.07812 28.4358 5.20159 28.7339 5.42136 28.9537C5.64113 29.1734 5.9392 29.2969 6.25 29.2969C6.5608 29.2969 6.85887 29.1734 7.07864 28.9537C7.29841 28.7339 7.42187 28.4358 7.42187 28.125V14.125L14.9766 16.6445C14.0239 18.0525 13.3783 19.6452 13.0819 21.3191C12.7854 22.993 12.8447 24.7106 13.2559 26.3601C13.6671 28.0095 14.4211 29.5539 15.4686 30.8928C16.5161 32.2316 17.8338 33.3349 19.3359 34.1309C15.5762 35.4063 12.3047 37.957 9.96093 41.5527C9.82621 41.8108 9.79235 42.1097 9.86593 42.3914C9.93952 42.673 10.1153 42.9172 10.359 43.0763C10.6027 43.2355 10.897 43.2982 11.1844 43.2523C11.4719 43.2065 11.732 43.0552 11.9141 42.8281C14.9355 38.2012 19.7031 35.5469 25 35.5469C30.2969 35.5469 35.0644 38.2012 38.0859 42.8281C38.2669 43.0601 38.5285 43.2155 38.8187 43.2634C39.109 43.3114 39.4066 43.2485 39.6526 43.0871C39.8986 42.9257 40.0749 42.6778 40.1465 42.3924C40.2181 42.1071 40.1797 41.8053 40.039 41.5469C37.6953 37.957 34.4277 35.4063 30.664 34.125C32.1654 33.3282 33.4821 32.2243 34.5287 30.885C35.5752 29.5458 36.3281 28.0012 36.7384 26.3518C37.1487 24.7024 37.2071 22.9851 36.91 21.3117C36.6128 19.6382 35.9667 18.046 35.0137 16.6387L44.1211 13.6113C44.3541 13.5334 44.5567 13.3841 44.7003 13.1847C44.8439 12.9853 44.9211 12.7457 44.9211 12.5C44.9211 12.2543 44.8439 12.0148 44.7003 11.8153C44.5567 11.6159 44.3541 11.4666 44.1211 11.3887ZM34.7656 23.4375C34.7663 24.9936 34.3951 26.5274 33.683 27.911C32.9708 29.2946 31.9384 30.488 30.6716 31.3917C29.4048 32.2954 27.9404 32.8834 26.4004 33.1065C24.8603 33.3297 23.2893 33.1816 21.8181 32.6745C20.3469 32.1675 19.0182 31.3163 17.9426 30.1917C16.867 29.0671 16.0758 27.7018 15.6348 26.2095C15.1938 24.7172 15.1157 23.1411 15.4072 21.6125C15.6987 20.0839 16.3513 18.6472 17.3105 17.4219L24.6289 19.8613C24.8698 19.9417 25.1302 19.9417 25.3711 19.8613L32.6894 17.4219C34.0367 19.1374 34.768 21.2562 34.7656 23.4375ZM25 17.5156L9.96093 12.5L25 7.48438L40.039 12.5L25 17.5156Z" fill="black"/>
</svg>
