<svg width="40" height="40" viewBox="0 0 40 40" fill="none" xmlns="http://www.w3.org/2000/svg">
<g clip-path="url(#clip0_18_55)">
<circle cx="20" cy="20" r="19.5" fill="#5BFF75" stroke="#484848"/>
<path d="M24.7116 4C27.9621 4 30.7197 5.16608 32.9845 7.49823C35.2493 9.83038 36.3811 12.6695 36.38 16.0155H33.0462C33.0462 14.8712 32.8445 13.8058 32.4411 12.8194C32.0377 11.833 31.4893 10.953 30.7958 10.1794L28.5038 14.1703C28.226 14.628 27.9276 15.1286 27.6087 15.6722C27.2898 16.2158 26.9491 16.6878 26.5869 17.0883C26.1979 17.5174 25.7117 17.732 25.1283 17.732C24.5449 17.732 24.0448 17.5317 23.6281 17.1312C23.2114 16.7307 23.003 16.2301 23.003 15.6293C23.003 15.0285 23.2114 14.5136 23.6281 14.0844C24.017 13.6839 24.4827 13.3263 25.025 13.0116C25.5673 12.6969 26.0601 12.3965 26.5035 12.1105L30.3791 9.75028C29.629 9.03507 28.775 8.47034 27.8171 8.05609C26.8591 7.64184 25.824 7.43414 24.7116 7.433V4ZM19.8359 38.33C17.5022 38.33 15.3146 37.8723 13.2732 36.9568C11.2318 36.0413 9.45375 34.8043 7.93907 33.2457C6.4244 31.686 5.22256 29.8551 4.33353 27.7529C3.44451 25.6508 3 23.3976 3 20.9933C3 16.8165 4.29186 13.1335 6.87558 9.94424C9.4593 6.75498 12.7515 4.77357 16.7521 4C16.252 6.83223 16.4048 9.60037 17.2105 12.3044C18.0161 15.0085 19.4052 17.3755 21.3778 19.4056C23.3503 21.4368 25.6495 22.8672 28.2755 23.6968C30.9014 24.5265 33.589 24.6838 36.3383 24.1689C35.616 28.2885 33.699 31.6786 30.5875 34.3391C27.4759 36.9997 23.892 38.33 19.8359 38.33Z" fill="black"/>
</g>
<defs>
<clipPath id="clip0_18_55">
<rect width="40" height="40" fill="white"/>
</clipPath>
</defs>
</svg>
