<svg width="30" height="30" viewBox="0 0 30 30" fill="none" xmlns="http://www.w3.org/2000/svg">
<g clip-path="url(#clip0_18_48)">
<rect width="30" height="30" rx="15" fill="#FFC700"/>
<path d="M23.3334 0.566665C25.867 2.02948 27.971 4.13346 29.4338 6.66713C30.8966 9.20081 31.6667 12.0749 31.6667 15.0005C31.6667 17.9262 30.8966 20.8002 29.4337 23.3339C27.9709 25.8675 25.8669 27.9715 23.3332 29.4343C20.7995 30.8971 17.9254 31.6671 14.9998 31.6671C12.0741 31.667 9.20007 30.8969 6.66643 29.434C4.13279 27.9712 2.02886 25.8671 0.566099 23.3334C-0.896659 20.7997 -1.6667 17.9256 -1.66663 15L-1.65829 14.46C-1.56495 11.5816 -0.72738 8.7766 0.772773 6.31832C2.27293 3.86004 4.38446 1.83242 6.90153 0.433136C9.41859 -0.966146 12.2553 -1.68934 15.1351 -1.66594C18.0148 -1.64254 20.8394 -0.873338 23.3334 0.566665ZM20 6.66667H10C7.85504 6.66667 7.78004 9.77333 9.77837 9.98833L10 10H11.6667C12.2518 10 12.8266 10.154 13.3333 10.4466C13.84 10.7392 14.2608 11.1599 14.5534 11.6667H10C9.55801 11.6667 9.13409 11.8423 8.82153 12.1548C8.50897 12.4674 8.33337 12.8913 8.33337 13.3333C8.33337 13.7754 8.50897 14.1993 8.82153 14.5118C9.13409 14.8244 9.55801 15 10 15L14.5534 15.0017C14.2606 15.5081 13.8397 15.9285 13.333 16.2208C12.8263 16.513 12.2517 16.6668 11.6667 16.6667H10C8.51671 16.6667 7.77171 18.4617 8.82171 19.5117L13.8217 24.5117C14.1343 24.8241 14.5581 24.9996 15 24.9996C15.442 24.9996 15.8658 24.8241 16.1784 24.5117L16.3167 24.355C16.5655 24.0343 16.6887 23.6339 16.6632 23.2289C16.6377 22.8238 16.4653 22.442 16.1784 22.155L13.705 19.68L13.8934 19.6183C14.9219 19.2529 15.8452 18.641 16.5826 17.8362C17.32 17.0314 17.849 16.0582 18.1234 15.0017L20 15C20.4421 15 20.866 14.8244 21.1786 14.5118C21.4911 14.1993 21.6667 13.7754 21.6667 13.3333C21.6667 12.8913 21.4911 12.4674 21.1786 12.1548C20.866 11.8423 20.4421 11.6667 20 11.6667H18.1234C17.9956 11.172 17.8111 10.6939 17.5734 10.2417L17.4417 10H20C20.4421 10 20.866 9.8244 21.1786 9.51184C21.4911 9.19928 21.6667 8.77536 21.6667 8.33333L21.655 8.13833C21.6073 7.73291 21.4124 7.35912 21.1073 7.08786C20.8023 6.81659 20.4083 6.66672 20 6.66667Z" fill="black"/>
</g>
<defs>
<clipPath id="clip0_18_48">
<rect width="30" height="30" rx="15" fill="white"/>
</clipPath>
</defs>
</svg>
